<?xml version="1.0" standalone="no"?>
<!DOCTYPE svg PUBLIC "-//W3C//DTD SVG 20010904//EN"
 "http://www.w3.org/TR/2001/REC-SVG-20010904/DTD/svg10.dtd">
<svg version="1.0" xmlns="http://www.w3.org/2000/svg"
 width="350.000000pt" height="275.000000pt" viewBox="0 0 350.000000 275.000000"
 preserveAspectRatio="xMidYMid meet">

<g transform="translate(0.000000,275.000000) scale(0.100000,-0.100000)"
fill="#000000" stroke="none">
<path d="M318 2553 c24 -5 28 -37 4 -39 -6 -1 -16 -2 -22 -3 -5 0 -9 -59 -8
-141 l0 -140 24 0 c36 0 33 -37 -3 -43 -16 -2 5 -5 45 -6 70 -1 72 0 72 23 0
18 6 26 22 28 18 2 24 12 31 46 5 26 14 42 23 42 11 0 14 16 14 69 0 60 -2 69
-20 74 -12 3 -20 14 -20 26 0 16 -6 21 -26 21 -23 0 -26 3 -22 25 5 25 5 25
-66 24 -39 -1 -61 -4 -48 -6z m120 -138 c5 -82 -6 -135 -29 -135 -12 0 -19 -7
-19 -20 0 -15 -7 -20 -25 -20 -23 0 -25 4 -27 48 -3 86 4 167 16 175 6 4 27 6
46 5 34 -3 35 -4 38 -53z"/>
<path d="M730 2490 c0 -68 -1 -70 -25 -70 -20 0 -25 -5 -25 -25 0 -20 5 -25
25 -25 25 0 25 0 25 -95 l0 -95 70 0 c39 0 70 4 70 9 0 20 -13 41 -25 41 -8 0
-14 26 -19 80 -8 94 1 160 20 160 22 0 16 37 -6 43 -30 8 -25 35 8 40 15 2 -6
5 -45 6 l-73 1 0 -70z"/>
<path d="M1148 2553 c30 -6 25 -37 -6 -41 -16 -3 -22 -10 -22 -28 0 -16 -6
-24 -17 -24 -15 0 -15 -2 -4 -9 11 -7 10 -10 -5 -13 -11 -3 -2 -7 24 -12 65
-12 68 -55 5 -56 -13 0 -23 -5 -23 -11 0 -5 -4 -8 -9 -5 -5 3 -11 -3 -14 -14
-3 -12 -14 -20 -25 -20 -15 0 -19 -5 -15 -20 3 -11 14 -20 24 -20 14 0 19 -7
19 -25 0 -23 4 -25 46 -25 44 0 46 -1 42 -25 -5 -25 -5 -25 68 -25 68 0 73 1
71 21 -1 12 -11 25 -24 30 -14 5 -23 17 -23 29 0 17 -6 20 -45 20 -38 0 -45 3
-45 19 0 13 8 21 22 23 15 2 25 12 28 28 3 14 12 25 20 25 12 0 16 19 20 93
l5 92 -70 -1 c-38 -1 -60 -4 -47 -6z"/>
<path d="M1478 2552 c34 -10 29 -26 -12 -36 -25 -7 -36 -15 -36 -28 0 -14 8
-18 40 -18 l40 0 0 -50 c0 -47 2 -50 25 -50 18 0 25 -5 25 -19 0 -13 8 -21 23
-23 19 -3 22 -8 20 -42 -2 -22 -4 -40 -5 -42 -2 -1 -20 -5 -41 -9 -34 -7 -39
-5 -44 14 -3 12 -13 21 -24 21 -27 0 -25 -36 2 -43 27 -7 20 -29 -12 -38 -13
-4 20 -7 74 -8 l97 -1 0 26 c0 17 6 28 20 31 16 4 20 14 20 44 0 32 -3 39 -20
39 -15 0 -20 7 -20 24 0 18 -6 25 -22 28 -22 3 -23 7 -22 96 l2 92 -77 -1
c-42 -1 -66 -4 -53 -7z m75 -56 c7 -16 -1 -26 -20 -26 -7 0 -13 9 -13 20 0 23
25 27 33 6z"/>
<path d="M1956 2523 c1 -26 6 -37 15 -35 18 5 29 22 29 50 0 16 -6 22 -22 22
-20 0 -23 -5 -22 -37z"/>
<path d="M2250 2471 l0 -88 31 -7 c17 -3 46 -6 64 -6 28 0 33 -4 39 -31 10
-51 8 -59 -19 -59 -18 0 -25 -5 -25 -19 0 -13 -11 -20 -42 -27 -34 -7 -44 -14
-46 -32 -3 -21 -1 -22 93 -22 57 0 94 4 90 9 -3 6 -3 28 1 50 4 27 12 41 25
44 25 7 24 37 0 44 -11 3 -21 15 -23 26 -2 12 -12 24 -23 27 -27 7 -30 30 -5
37 16 4 20 14 20 49 l0 44 -45 0 c-41 0 -45 2 -45 25 0 23 -4 25 -45 25 l-45
0 0 -89z"/>
<path d="M2690 2516 c0 -39 -3 -45 -22 -48 -22 -3 -23 -8 -26 -96 -3 -86 -1
-94 17 -99 19 -5 38 -52 32 -80 -1 -10 18 -13 72 -13 l74 0 -5 30 c-4 25 -1
30 17 30 25 0 24 22 -1 32 -11 4 -18 18 -18 33 0 23 -4 25 -44 25 -42 0 -44 1
-48 34 -2 19 -2 52 0 75 3 34 8 41 26 42 20 0 20 1 1 9 -16 7 -16 9 -4 9 11 1
18 12 21 31 5 30 4 30 -44 30 l-48 0 0 -44z"/>
<path d="M3058 2553 c19 -3 32 -10 32 -19 0 -8 15 -16 40 -20 34 -6 40 -10 40
-30 0 -15 -6 -24 -16 -24 -8 0 -20 -13 -25 -29 -7 -20 -15 -28 -25 -24 -10 4
-13 0 -8 -13 5 -18 5 -18 -6 -1 -18 28 -47 21 -54 -14 -9 -47 -8 -49 19 -49
20 0 25 -5 25 -26 0 -17 -6 -28 -19 -31 -11 -3 -21 -17 -25 -35 -11 -56 -10
-58 42 -57 26 1 37 4 25 6 -14 3 -23 12 -23 23 0 12 8 20 23 22 18 2 23 10 25
46 3 34 7 42 23 42 14 0 19 7 19 25 0 20 5 25 25 25 23 0 25 3 25 50 0 42 3
50 19 50 13 0 20 10 25 31 12 61 17 59 -116 57 -68 0 -108 -3 -90 -5z"/>
<path d="M1906 2425 c-6 -36 -11 -45 -27 -45 -16 0 -19 -7 -19 -50 l0 -50 45
0 45 0 0 -50 0 -50 43 1 c23 1 34 3 25 6 -24 6 -23 43 1 43 20 0 31 39 31 113
0 31 3 37 23 38 21 0 21 1 2 8 l-20 8 20 6 c11 3 0 5 -25 4 -45 -2 -45 -2 -50
-42 -4 -32 -9 -40 -25 -40 -18 0 -20 6 -18 73 2 69 1 72 -21 72 -20 0 -25 -6
-30 -45z"/>
<path d="M642 2230 c0 -14 2 -19 5 -12 2 6 2 18 0 25 -3 6 -5 1 -5 -13z"/>
<path d="M2581 2234 c0 -11 3 -14 6 -6 3 7 2 16 -1 19 -3 4 -6 -2 -5 -13z"/>
<path d="M1808 2223 c7 -3 16 -2 19 1 4 3 -2 6 -13 5 -11 0 -14 -3 -6 -6z"/>
<path d="M298 2100 c3 -61 6 -70 23 -70 16 0 19 -7 19 -45 0 -42 -2 -45 -26
-45 -25 0 -25 0 -22 -75 l3 -75 93 0 92 0 0 30 c0 23 4 30 20 30 13 0 20 6 19
18 0 11 -2 12 -6 4 -7 -19 -32 16 -33 46 0 17 -6 22 -25 22 -18 0 -25 5 -25
20 0 15 7 20 25 20 24 0 25 2 25 70 0 62 -2 70 -19 70 -11 0 -27 3 -36 6 -14
6 -14 8 1 25 17 18 15 19 -57 19 l-74 0 3 -70z m132 -45 c0 -20 -5 -25 -25
-25 -18 0 -25 5 -25 18 0 24 8 32 32 32 13 0 18 -7 18 -25z m-53 -141 c-3 -3
-12 -4 -19 -1 -8 3 -5 6 6 6 11 1 17 -2 13 -5z m22 -20 c25 -5 31 -11 29 -28
-2 -16 -11 -22 -41 -24 -39 -3 -55 12 -43 43 6 17 11 18 55 9z"/>
<path d="M681 2055 l-2 -114 73 -3 c66 -3 73 -5 76 -25 2 -16 -3 -22 -20 -25
-15 -2 -24 -11 -26 -25 -3 -20 -9 -23 -47 -23 -38 0 -43 -3 -47 -25 l-5 -25
86 1 c47 1 78 3 69 6 -29 7 -23 43 7 43 20 0 25 5 25 25 0 18 5 25 20 25 15 0
20 7 20 25 0 18 -5 25 -20 25 -19 0 -20 7 -20 89 l0 90 -47 3 c-42 3 -48 6
-47 26 1 20 -4 22 -46 22 l-47 0 -2 -115z m97 -47 c-2 -15 -11 -24 -25 -26
-19 -3 -23 1 -23 22 0 21 5 26 26 26 21 0 25 -4 22 -22z"/>
<path d="M1124 2148 c1 -16 -5 -24 -20 -26 -20 -3 -22 -11 -26 -85 -2 -45 -2
-105 0 -134 3 -44 7 -52 25 -55 17 -2 22 -10 22 -30 -1 -27 1 -28 47 -28 47 0
48 1 48 30 0 23 4 30 20 30 21 0 20 -2 23 125 0 30 0 30 4 3 7 -48 31 -33 35
21 4 62 -1 84 -17 77 -9 -3 -15 10 -20 45 l-7 49 -67 0 c-64 0 -68 -1 -67 -22z
m97 -128 c1 -30 1 -72 0 -92 l-1 -38 -45 0 -45 0 0 70 c0 63 2 70 20 70 14 0
20 7 20 23 0 13 5 28 12 35 21 21 37 -8 39 -68z"/>
<path d="M1560 2126 c0 -39 -3 -45 -22 -48 -15 -2 -24 -11 -26 -25 -2 -15 -10
-23 -23 -23 -16 0 -19 -7 -19 -45 0 -43 1 -45 29 -45 56 0 61 -6 61 -81 l0
-69 48 0 47 0 0 190 0 190 -47 0 -48 0 0 -44z"/>
<path d="M1883 2163 c34 -5 36 -33 2 -33 -24 0 -25 -2 -25 -70 0 -63 2 -70 19
-70 16 0 21 9 27 46 5 39 9 45 28 42 11 -2 21 -9 20 -15 -1 -7 -2 -48 -2 -92
l-2 -79 -44 -6 c-47 -7 -55 -29 -14 -39 16 -5 19 -12 16 -31 l-5 -26 121 1
c66 1 109 4 94 6 -21 3 -28 10 -29 29 -1 13 -2 30 -3 37 -1 6 -19 14 -41 17
l-40 5 -3 98 c-2 87 -5 97 -21 97 -14 0 -21 10 -25 35 -4 20 -4 40 -1 45 4 6
-14 9 -47 9 -29 -1 -41 -4 -25 -6z"/>
<path d="M2248 2125 c4 -40 7 -45 28 -45 16 0 24 6 24 18 1 15 2 15 11 -2 9
-15 13 -16 20 -5 6 9 9 2 9 -23 0 -31 -4 -38 -20 -38 -13 0 -20 -7 -20 -20 0
-13 7 -20 20 -20 15 0 20 -7 20 -25 0 -20 5 -25 25 -25 20 0 25 -5 25 -25 0
-20 -5 -25 -25 -25 -18 0 -25 -5 -25 -20 0 -13 -7 -20 -20 -21 -11 -1 -24 -3
-30 -4 -5 -1 -17 -3 -25 -4 -9 0 -15 -11 -15 -26 0 -25 0 -25 93 -25 l92 0 3
53 c5 86 -6 137 -29 137 -14 0 -19 7 -19 25 0 20 5 25 25 25 22 0 25 4 25 36
0 21 4 33 10 29 6 -3 10 1 10 10 0 9 -4 14 -9 10 -12 -7 -25 31 -16 45 4 6
-29 10 -92 10 l-98 0 3 -45z"/>
<path d="M2696 2155 c4 -8 10 -13 14 -10 5 3 11 1 15 -5 3 -5 -3 -10 -14 -10
-16 0 -21 -6 -21 -26 0 -17 -6 -28 -19 -31 -13 -3 -22 -17 -26 -44 -4 -25 -13
-40 -26 -44 -27 -9 -25 -43 4 -47 14 -2 23 -11 25 -25 3 -18 11 -22 45 -25 34
-2 42 -7 42 -23 0 -13 -8 -21 -22 -23 -17 -3 -23 -10 -23 -28 0 -23 2 -24 73
-23 39 1 62 4 50 6 -31 6 -33 53 -3 53 18 0 20 7 20 70 0 63 2 70 20 70 17 0
20 7 20 39 0 41 -13 51 -69 51 -21 0 -23 3 -19 45 l3 45 -47 0 c-38 0 -46 -3
-42 -15z m84 -125 c0 -53 0 -53 -49 -44 -35 7 -41 29 -11 37 14 3 20 14 20 31
0 19 5 26 20 26 17 0 20 -7 20 -50z"/>
<path d="M3008 2163 c29 -6 31 -43 2 -43 -18 0 -20 -7 -20 -64 0 -63 0 -64 31
-70 17 -3 47 -6 65 -6 34 0 34 -1 34 -45 0 -38 -3 -45 -20 -45 -13 0 -20 -7
-20 -19 0 -13 -8 -21 -22 -23 -15 -2 -24 -11 -26 -25 -2 -13 -12 -23 -25 -26
-12 -2 11 -5 51 -6 71 -1 72 0 72 24 0 18 5 25 20 25 19 0 20 7 20 95 0 95 0
95 -25 95 -18 0 -25 5 -25 19 0 28 11 52 21 45 5 -3 9 0 9 6 0 6 5 8 10 5 6
-3 10 -1 10 4 0 6 11 11 25 11 20 0 25 5 25 25 l0 25 -117 -1 c-65 -1 -108 -4
-95 -6z m6 -149 c3 -8 2 -12 -4 -9 -6 3 -10 10 -10 16 0 14 7 11 14 -7z"/>
<path d="M231 1844 c0 -11 3 -14 6 -6 3 7 2 16 -1 19 -3 4 -6 -2 -5 -13z"/>
<path d="M251 1844 c0 -11 3 -14 6 -6 3 7 2 16 -1 19 -3 4 -6 -2 -5 -13z"/>
<path d="M2212 1840 c0 -14 2 -19 5 -12 2 6 2 18 0 25 -3 6 -5 1 -5 -13z"/>
<path d="M2986 1825 c-3 -8 -1 -15 4 -15 6 0 10 7 10 15 0 8 -2 15 -4 15 -2 0
-6 -7 -10 -15z"/>
<path d="M346 1743 c-3 -21 -6 -67 -6 -103 0 -70 -5 -83 -33 -93 -21 -8 -20
-51 1 -53 6 -1 17 -2 22 -3 6 0 10 -10 10 -22 0 -12 8 -23 20 -26 27 -7 25
-31 -2 -36 -13 -2 20 -5 72 -6 l95 -1 0 72 c0 51 -4 73 -12 74 -7 1 -17 2 -23
3 -5 0 -10 10 -10 21 0 17 -7 20 -45 20 l-45 0 0 45 c0 38 3 45 20 45 17 0 20
7 20 50 l0 50 -39 0 c-37 0 -39 -2 -45 -37z m134 -268 c0 -20 -5 -25 -25 -25
-20 0 -25 5 -25 25 0 20 5 25 25 25 20 0 25 -5 25 -25z"/>
<path d="M736 1771 c-4 -5 0 -12 6 -14 18 -8 -10 -27 -39 -27 -21 0 -23 -5
-23 -46 0 -41 2 -45 23 -42 12 2 22 10 22 18 0 9 11 16 28 18 29 4 32 -3 21
-57 -6 -29 -9 -31 -50 -31 -40 0 -44 -2 -44 -24 0 -14 5 -28 10 -31 6 -4 8
-10 5 -15 -3 -5 -1 -11 5 -15 5 -3 10 0 10 7 0 9 3 9 10 -2 5 -8 10 -36 10
-62 l0 -48 45 0 45 0 0 51 c0 42 3 52 20 56 11 3 20 12 20 19 0 8 10 14 25 14
20 0 25 5 25 25 0 18 -5 25 -20 25 -18 0 -20 7 -21 83 -1 45 -1 88 0 95 2 14
-124 18 -133 3z"/>
<path d="M1080 1734 c0 -37 3 -44 20 -44 17 0 20 -7 20 -50 0 -43 -3 -50 -20
-50 -19 0 -20 -7 -20 -95 l0 -95 48 0 c44 0 49 2 48 23 -1 16 5 23 22 25 15 2
22 10 22 25 0 42 -12 67 -31 67 -14 0 -19 7 -19 25 0 18 5 25 20 25 15 0 20 7
20 25 0 20 5 25 25 25 24 0 25 2 25 70 l0 70 -90 -2 -90 -1 0 -43z m88 14 c-7
-19 -38 -22 -38 -4 0 10 9 16 21 16 12 0 19 -5 17 -12z m2 -253 c0 -41 -2 -45
-25 -45 -23 0 -25 4 -25 45 0 41 2 45 25 45 23 0 25 -4 25 -45z"/>
<path d="M1509 1773 c-1 -5 -1 -16 0 -25 2 -12 -5 -18 -18 -18 -17 0 -21 -6
-21 -30 0 -17 5 -30 13 -30 9 0 8 -3 -2 -9 -11 -7 -9 -10 7 -15 11 -4 22 -17
24 -29 3 -19 10 -22 51 -25 42 -3 47 -5 47 -28 0 -18 5 -24 21 -24 18 0 20 -5
17 -42 -2 -25 -8 -44 -15 -44 -7 -1 -38 -2 -68 -3 -47 -1 -55 -4 -55 -20 0
-12 -8 -21 -22 -24 -13 -2 30 -5 95 -6 l117 -1 0 70 c0 68 -1 70 -25 70 -23 0
-25 4 -25 45 0 38 -3 45 -19 45 -15 0 -20 10 -26 50 -6 40 -11 50 -26 50 -14
0 -19 7 -19 25 0 20 -5 25 -25 25 -14 0 -26 -3 -26 -7z"/>
<path d="M1909 1773 c-1 -5 -1 -16 0 -25 2 -13 -5 -18 -24 -18 l-26 0 2 -127
c1 -70 3 -133 6 -140 3 -7 14 -13 25 -13 16 0 19 -5 16 -25 -5 -24 -3 -25 47
-25 50 0 52 1 47 25 -4 22 -1 25 22 25 25 0 26 3 26 50 0 45 2 50 23 50 16 0
18 3 8 9 -11 7 -11 9 0 14 8 3 5 6 -8 6 -21 1 -22 6 -25 79 -3 71 -5 77 -25
80 -27 4 -31 22 -5 22 14 0 15 2 2 10 -18 11 -109 13 -111 3z m91 -188 c0 -95
0 -95 -25 -95 -20 0 -25 5 -25 25 0 18 -5 25 -20 25 -17 0 -20 7 -20 50 0 43
3 50 20 50 13 0 20 7 20 20 0 15 7 20 25 20 25 0 25 0 25 -95z"/>
<path d="M2340 1730 c0 -43 -3 -50 -20 -50 -13 0 -20 -7 -20 -19 0 -14 -8 -21
-27 -23 -20 -2 -29 -9 -31 -25 -3 -20 1 -23 27 -23 30 0 31 -1 31 -45 0 -38 3
-45 18 -43 14 2 18 -6 20 -49 l3 -53 47 0 48 0 0 190 0 190 -48 0 -48 0 0 -50z
m-10 -204 c0 -3 -4 -8 -10 -11 -5 -3 -10 -1 -10 4 0 6 5 11 10 11 6 0 10 -2
10 -4z"/>
<path d="M2646 1741 c-9 -56 2 -101 25 -101 14 0 19 7 19 26 0 21 4 25 23 22
19 -3 22 -10 25 -51 3 -42 0 -49 -17 -54 -15 -4 -23 -16 -27 -44 -5 -29 -12
-39 -28 -41 -31 -4 -30 -52 2 -56 12 -2 22 -10 22 -17 0 -7 -10 -16 -22 -18
-13 -2 30 -5 95 -6 117 -1 118 -1 115 22 -2 16 -11 23 -30 25 -20 2 -28 9 -28
23 0 21 -20 25 -38 7 -9 -9 -12 -9 -12 0 0 7 -7 12 -15 12 -9 0 -15 9 -15 25
0 18 5 25 20 25 19 0 20 7 20 95 0 88 -1 95 -20 95 -15 0 -20 7 -20 25 0 23
-4 25 -44 25 -43 0 -44 -1 -50 -39z"/>
<path d="M3033 1735 l-2 -45 69 0 c67 0 70 -1 70 -24 0 -18 -6 -25 -22 -28
-21 -3 -23 -8 -23 -73 0 -65 -2 -70 -22 -73 -13 -2 -23 -10 -23 -17 0 -7 -10
-15 -22 -17 -17 -2 -24 -11 -26 -30 l-3 -28 70 0 c69 0 71 1 71 25 0 20 5 25
25 25 23 0 25 4 25 45 0 40 -3 45 -26 51 -31 8 -29 38 4 42 19 3 22 10 22 44
0 31 4 41 20 45 13 3 20 14 20 29 0 17 -6 24 -20 24 -15 0 -20 7 -20 25 0 25
0 25 -92 25 l-93 0 -2 -45z"/>
<path d="M232 1450 c0 -14 2 -19 5 -12 2 6 2 18 0 25 -3 6 -5 1 -5 -13z"/>
<path d="M2202 1445 c0 -16 2 -22 5 -12 2 9 2 23 0 30 -3 6 -5 -1 -5 -18z"/>
<path d="M386 1345 c-6 -36 -11 -45 -27 -45 -13 0 -19 -7 -19 -24 0 -18 -6
-25 -22 -28 -20 -3 -23 -10 -26 -50 -3 -46 -2 -48 22 -48 19 0 26 -5 26 -19 0
-15 10 -20 45 -25 36 -6 45 -11 45 -27 0 -12 -7 -19 -19 -19 -12 0 -20 -9 -23
-25 -5 -24 -3 -25 45 -25 43 0 48 2 37 15 -10 12 -10 19 -2 27 17 17 15 188
-2 211 -19 25 -25 21 -32 -23 -6 -34 -10 -40 -30 -40 -25 0 -28 8 -18 59 4 21
12 31 24 31 14 0 19 10 22 50 3 45 1 50 -18 50 -18 0 -23 -8 -28 -45z"/>
<path d="M682 1273 l3 -118 43 -3 c41 -3 42 -4 41 -40 0 -20 -3 -31 -6 -24 -2
6 -9 12 -15 12 -6 0 -7 -7 -4 -15 4 -11 -3 -17 -24 -22 -17 -3 -30 -8 -31 -12
0 -3 -2 -14 -4 -23 -3 -16 5 -18 66 -18 l70 0 -3 93 c-2 64 -7 92 -15 93 -7 1
-26 2 -43 3 -29 1 -30 3 -30 45 l0 44 50 7 c51 7 65 26 40 51 -13 13 3 29 35
37 11 2 -24 5 -78 6 l-98 1 3 -117z m113 87 c-3 -5 -11 -10 -16 -10 -6 0 -7 5
-4 10 3 6 11 10 16 10 6 0 7 -4 4 -10z"/>
<path d="M1120 1360 c0 -24 -4 -30 -22 -31 -13 0 -17 -3 -10 -6 6 -2 12 -9 12
-14 0 -6 -4 -8 -9 -5 -11 7 -19 -112 -13 -187 4 -49 7 -57 24 -57 16 0 19 -5
16 -25 l-5 -25 101 1 c55 1 91 4 79 6 -30 6 -32 43 -3 43 15 0 20 7 20 25 0
18 -5 25 -20 25 -13 0 -20 7 -20 19 0 15 -10 20 -50 26 l-50 7 0 63 c0 58 2
64 23 67 19 3 22 10 25 51 l3 47 -50 0 c-50 0 -51 -1 -51 -30z"/>
<path d="M1517 1371 c3 -11 13 -21 24 -24 11 -3 19 -14 19 -25 0 -14 8 -22 23
-24 14 -2 23 -11 25 -25 3 -20 -2 -22 -67 -29 -39 -3 -68 -10 -65 -15 8 -13
-18 -47 -33 -42 -7 3 -13 -1 -13 -9 0 -16 1 -16 78 -24 47 -5 52 -8 52 -30 0
-17 -6 -24 -19 -24 -13 0 -20 -10 -25 -31 -11 -57 -10 -59 42 -59 40 0 49 3
49 18 -1 58 4 72 22 72 19 0 30 35 32 105 0 17 3 24 6 18 7 -19 22 -16 23 5 6
106 6 107 -19 110 -18 3 -22 8 -18 28 4 24 3 24 -68 24 -67 0 -73 -2 -68 -19z"/>
<path d="M1860 1340 c0 -27 4 -50 10 -50 5 0 7 -8 3 -17 -3 -10 -3 -15 2 -11
13 12 35 -12 35 -38 0 -19 -5 -24 -25 -24 -24 0 -25 -2 -25 -75 0 -45 4 -75
10 -75 7 0 7 -6 0 -20 -10 -19 -8 -20 62 -19 40 1 63 4 51 6 -38 7 -27 32 17
39 40 6 40 7 40 50 0 37 -3 44 -20 44 -30 0 -28 47 3 52 20 3 22 8 22 68 l0
65 -45 5 c-39 4 -45 8 -44 28 1 20 -4 22 -48 22 l-48 0 0 -50z m140 -70 c0
-15 -7 -20 -25 -20 -18 0 -25 5 -25 20 0 15 7 20 25 20 18 0 25 -5 25 -20z
m-44 -151 c-3 -17 -6 -38 -6 -45 0 -8 -9 -14 -20 -14 -17 0 -20 7 -20 45 0 42
2 45 26 45 24 0 26 -3 20 -31z"/>
<path d="M1978 1383 c7 -3 16 -2 19 1 4 3 -2 6 -13 5 -11 0 -14 -3 -6 -6z"/>
<path d="M2251 1320 c-1 -64 0 -70 19 -70 15 0 20 -7 20 -25 0 -23 3 -25 50
-25 l50 0 0 -45 c0 -39 -3 -45 -20 -45 -13 0 -24 -10 -30 -25 -6 -15 -17 -25
-30 -25 -13 0 -20 -7 -20 -19 0 -12 -8 -21 -22 -24 -13 -2 31 -5 97 -6 l120
-1 -3 70 c-3 61 -6 70 -23 70 -14 0 -19 8 -20 30 -1 17 -3 35 -4 40 -1 6 -3
15 -4 20 0 6 -10 10 -21 10 -17 0 -20 7 -20 46 0 37 -4 47 -20 51 -27 7 -25
31 3 36 12 2 -10 5 -49 6 l-71 1 -2 -70z"/>
<path d="M2644 1382 c3 -4 2 -39 -2 -78 -5 -52 -11 -69 -22 -69 -12 0 -15 -14
-16 -65 0 -36 1 -57 3 -47 3 9 8 17 13 17 5 0 6 -7 3 -17 -4 -10 -2 -14 4 -10
11 7 27 -78 17 -94 -3 -5 28 -9 69 -9 74 0 74 0 69 25 -4 22 -1 25 22 25 l26
0 0 140 0 140 -25 0 c-18 0 -25 5 -25 19 0 11 6 22 13 24 6 3 -25 6 -71 6 -46
1 -81 -3 -78 -7z m140 -83 c4 -23 4 -75 0 -117 -6 -61 -10 -76 -25 -79 -11 -3
-19 -14 -19 -24 0 -14 -7 -19 -25 -19 l-25 0 0 114 c0 111 1 115 23 118 14 2
23 11 25 26 2 13 10 22 21 22 14 0 20 -11 25 -41z"/>
<path d="M3076 1347 c1 -23 2 -57 3 -74 1 -26 5 -33 21 -33 13 0 20 -7 20 -20
0 -15 7 -20 25 -20 18 0 25 -5 25 -20 0 -12 9 -24 23 -29 18 -7 23 -18 25 -50
l3 -41 -69 0 c-66 0 -70 -1 -74 -25 l-5 -25 98 0 99 0 0 39 c0 67 -11 101 -31
101 -17 0 -19 8 -19 70 0 63 -2 70 -20 70 -15 0 -20 7 -20 25 0 13 -7 28 -16
33 -11 6 -13 11 -5 16 24 15 9 26 -36 26 l-48 0 1 -43z"/>
<path d="M3311 1084 c0 -11 3 -14 6 -6 3 7 2 16 -1 19 -3 4 -6 -2 -5 -13z"/>
<path d="M252 1060 c0 -14 2 -19 5 -12 2 6 2 18 0 25 -3 6 -5 1 -5 -13z"/>
<path d="M2586 1072 c-2 -4 4 -8 14 -8 10 0 16 4 14 8 -3 4 -9 8 -14 8 -5 0
-11 -4 -14 -8z"/>
<path d="M1011 1054 c0 -11 3 -14 6 -6 3 7 2 16 -1 19 -3 4 -6 -2 -5 -13z"/>
<path d="M2215 1060 c-3 -5 -1 -10 4 -10 6 0 11 5 11 10 0 6 -2 10 -4 10 -3 0
-8 -4 -11 -10z"/>
<path d="M290 920 c0 -63 -2 -70 -20 -70 -11 0 -20 -6 -20 -14 0 -31 182 -35
188 -5 2 13 -8 18 -42 23 -35 6 -46 11 -46 25 0 10 9 21 20 24 11 3 20 12 20
21 0 11 10 16 34 16 58 0 94 11 99 31 5 18 -2 19 -114 19 l-119 0 0 -70z"/>
<path d="M658 983 c25 -5 32 -43 7 -43 -8 0 -15 -6 -15 -14 0 -8 7 -16 15 -20
10 -4 15 -20 15 -51 l0 -45 70 0 c68 0 70 1 70 25 0 20 -5 25 -26 25 -19 0
-25 4 -22 18 3 18 6 19 63 21 29 1 35 5 35 24 0 12 -4 29 -10 37 -6 9 -5 17 3
22 7 4 -42 7 -108 6 -66 0 -110 -3 -97 -5z m122 -18 c0 -9 -9 -15 -25 -15 -16
0 -25 6 -25 15 0 9 9 15 25 15 16 0 25 -6 25 -15z"/>
<path d="M1148 983 c12 -2 22 -11 22 -18 0 -7 -10 -15 -22 -17 -21 -3 -23 -8
-23 -68 0 -60 2 -65 23 -68 20 -3 22 1 22 42 0 38 3 46 19 46 13 0 20 10 25
31 11 57 10 59 -41 58 -27 -1 -38 -4 -25 -6z"/>
<path d="M1462 903 l3 -88 70 0 c57 0 70 3 73 17 2 12 -5 17 -25 20 -20 2 -28
9 -28 23 0 17 8 20 48 23 42 3 47 5 47 28 0 19 -5 24 -25 24 -34 0 -32 28 3
33 15 2 -17 5 -71 6 l-98 1 3 -87z"/>
<path d="M1878 983 c27 -5 29 -33 2 -33 -18 0 -20 -7 -20 -70 0 -64 2 -70 21
-70 12 0 23 8 26 20 3 11 14 20 24 20 14 0 19 7 19 25 0 20 5 25 25 25 23 0
25 -4 25 -40 0 -36 3 -40 25 -40 18 0 25 5 25 20 0 14 7 20 21 20 14 0 19 5
17 18 -2 9 -11 16 -20 14 -12 -2 -18 6 -20 25 -2 20 -9 29 -25 31 -15 2 -23
10 -23 23 0 17 -7 19 -72 18 -40 -1 -63 -4 -50 -6z"/>
<path d="M2250 900 l0 -90 70 0 70 0 0 45 c0 38 -3 45 -19 45 -16 0 -21 9 -27
45 l-6 45 -44 0 -44 0 0 -90z m77 -16 c-3 -3 -12 -4 -19 -1 -8 3 -5 6 6 6 11
1 17 -2 13 -5z"/>
<path d="M2688 983 c57 -5 59 -33 3 -33 -22 0 -42 -4 -45 -8 -6 -10 5 -124 12
-118 2 3 13 1 24 -5 29 -16 95 -2 101 22 3 11 14 19 25 19 18 0 21 8 24 65 l3
65 -95 -2 c-52 -1 -76 -3 -52 -5z m92 -63 c0 -13 -7 -20 -20 -20 -13 0 -20 -7
-20 -20 0 -15 -7 -20 -25 -20 -18 0 -25 5 -25 20 0 15 7 20 25 20 18 0 25 5
25 20 0 13 7 20 20 20 13 0 20 -7 20 -20z"/>
<path d="M3032 934 c-2 -31 0 -69 3 -85 6 -27 10 -29 51 -29 32 0 44 4 44 15
0 23 37 18 43 -6 4 -13 12 -20 24 -17 15 3 19 15 21 71 3 62 1 67 -18 67 -27
0 -26 28 3 33 12 2 -21 5 -73 6 l-95 1 -3 -56z m98 -14 c0 -15 -7 -20 -25 -20
-18 0 -25 5 -25 20 0 15 7 20 25 20 18 0 25 -5 25 -20z"/>
</g>
</svg>
