<?xml version="1.0" standalone="no"?>
<!DOCTYPE svg PUBLIC "-//W3C//DTD SVG 20010904//EN"
 "http://www.w3.org/TR/2001/REC-SVG-20010904/DTD/svg10.dtd">
<svg version="1.0" xmlns="http://www.w3.org/2000/svg"
 width="260.000000pt" height="260.000000pt" viewBox="0 0 260.000000 260.000000"
 preserveAspectRatio="xMidYMid meet">
<metadata>
Created by potrace 1.14, written by Peter Selinger 2001-2017
</metadata>
<g transform="translate(0.000000,260.000000) scale(0.100000,-0.100000)"
fill="#000000" stroke="none">
<path d="M0 1300 l0 -1300 1300 0 1300 0 0 1300 0 1300 -1300 0 -1300 0 0
-1300z m790 1011 c0 -27 -2 -28 -57 -34 -32 -2 -70 -10 -85 -17 -33 -16 -52
-60 -44 -103 8 -43 278 -767 286 -767 3 0 14 26 24 58 86 272 306 462 586 503
l80 11 15 51 c19 66 19 150 -1 188 -20 40 -102 79 -166 79 -47 0 -48 1 -48 31
0 24 3 30 16 25 9 -3 123 -6 255 -6 230 0 239 -1 239 -19 0 -13 -17 -29 -52
-48 -63 -34 -116 -100 -156 -197 -49 -116 -51 -110 54 -118 109 -8 195 -38
294 -102 l69 -45 10 32 c5 18 12 44 15 60 5 21 12 27 32 27 25 0 26 -1 20 -52
-8 -59 7 -48 18 15 6 32 11 37 33 37 l26 0 -6 -137 c-4 -75 -7 -194 -7 -265
l0 -128 -25 0 c-17 0 -26 7 -29 23 -3 12 -7 31 -9 42 -3 11 -5 1 -6 -22 -1
-39 -3 -43 -26 -43 -18 0 -26 6 -29 23 -44 219 -71 283 -156 368 -76 75 -213
134 -301 127 l-41 -3 -209 -540 c-116 -297 -212 -549 -215 -561 -9 -34 52
-201 102 -281 133 -213 341 -278 562 -173 132 62 206 170 237 346 9 55 19 109
21 121 3 17 11 23 29 23 24 0 25 -3 26 -57 1 -59 3 -58 14 10 5 31 10 37 30
37 l25 0 0 -132 c0 -73 3 -197 7 -275 l6 -143 -26 0 c-22 0 -27 5 -33 38 -11
61 -25 73 -18 15 6 -52 6 -53 -19 -53 -22 0 -27 6 -33 37 -16 88 -13 88 -105
33 -130 -79 -175 -92 -320 -98 -266 -9 -468 51 -596 178 -38 38 -42 40 -48 21
-4 -13 -15 -21 -30 -21 -18 0 -27 10 -40 42 -9 24 -156 403 -327 843 -171 440
-321 820 -333 845 -29 57 -72 98 -121 115 -26 9 -40 20 -42 34 -3 21 -1 21
305 24 169 1 311 3 316 5 4 1 7 -11 7 -27z"/>
<path d="M1491 1875 c-142 -67 -258 -253 -306 -495 -18 -91 -30 -368 -18 -430
8 -44 9 -43 162 355 85 220 171 444 192 498 20 53 34 97 31 97 -4 0 -31 -11
-61 -25z"/>
</g>
</svg>
