<?xml version="1.0" standalone="no"?>
<!DOCTYPE svg PUBLIC "-//W3C//DTD SVG 20010904//EN"
 "http://www.w3.org/TR/2001/REC-SVG-20010904/DTD/svg10.dtd">
<svg version="1.0" xmlns="http://www.w3.org/2000/svg"
 width="600.000000pt" height="600.000000pt" viewBox="0 0 1200.000000 1200.000000"
 preserveAspectRatio="xMidYMid meet">

<g transform="translate(0.000000,1200.000000) scale(0.100000,-0.100000)"
fill="#BFC7D2" stroke="none">
<path d="M5740 11994 c-879 -48 -1637 -243 -2388 -613 -713 -353 -1315 -816
-1873 -1441 -501 -562 -929 -1314 -1179 -2069 -143 -433 -226 -833 -277 -1341
-24 -243 -24 -824 0 -1065 63 -624 193 -1162 412 -1704 579 -1438 1714 -2614
3130 -3243 611 -272 1214 -428 1910 -494 252 -24 803 -25 1050 -1 569 55 1075
171 1600 369 1181 446 2214 1280 2910 2353 494 761 814 1643 919 2540 53 449
57 900 11 1335 -118 1117 -537 2162 -1225 3051 -276 357 -637 723 -1000 1014
-919 736 -2027 1182 -3205 1290 -161 15 -654 27 -795 19z m787 -998 c264 -31
430 -61 658 -116 954 -233 1806 -731 2479 -1449 591 -630 1006 -1393 1211
-2225 99 -404 135 -676 142 -1097 7 -400 -11 -651 -73 -999 -169 -944 -618
-1836 -1279 -2540 -811 -863 -1876 -1407 -3050 -1555 -505 -64 -1104 -43
-1585 56 -671 137 -1267 385 -1828 760 -510 342 -972 797 -1331 1312 -437 629
-728 1363 -840 2125 -46 306 -64 781 -42 1083 72 978 408 1877 995 2662 186
250 512 597 756 807 767 661 1795 1096 2790 1180 69 5 141 12 160 14 89 10
713 -3 837 -18z"/>
<path d="M2420 8006 c0 -3 54 -161 121 -353 67 -191 170 -490 229 -663 60
-173 210 -610 335 -970 125 -360 275 -797 335 -970 59 -173 162 -470 228 -660
l120 -345 233 -3 234 -2 117 337 c64 186 196 568 292 848 97 281 250 724 341
985 452 1307 615 1781 615 1792 0 5 -98 7 -217 6 l-217 -3 -8 -40 c-100 -560
-245 -1221 -399 -1825 -128 -504 -258 -963 -466 -1645 -51 -170 -96 -311 -98
-313 -2 -3 -8 6 -13 19 -13 33 -565 1627 -852 2459 -380 1101 -461 1333 -466
1341 -5 9 -464 13 -464 5z"/>
<path d="M7850 7999 c-489 -61 -877 -245 -1206 -573 -395 -394 -602 -917 -581
-1466 21 -540 223 -993 608 -1365 223 -215 468 -364 751 -456 242 -78 443
-105 713 -96 391 14 728 94 1025 242 104 52 275 160 299 188 8 10 11 75 9 227
l-3 213 -75 -89 c-250 -298 -554 -511 -883 -619 -168 -55 -295 -76 -455 -76
-328 -1 -616 105 -875 322 -281 234 -496 589 -602 994 -48 183 -65 303 -72
515 -21 686 256 1318 737 1682 109 82 290 179 410 219 169 55 419 74 593 44
579 -102 918 -560 787 -1069 -11 -44 -19 -81 -17 -83 5 -5 148 15 189 27 53
15 144 79 183 129 54 68 78 141 79 246 1 106 -16 171 -71 264 -136 229 -445
430 -802 521 -216 55 -557 82 -741 59z"/>
</g>
</svg>
